<?xml version="1.0" encoding="utf-8"?>
<!-- Generator: Adobe Illustrator 19.0.0, SVG Export Plug-In . SVG Version: 6.00 Build 0)  -->
<svg version="1.1" id="Layer_1" xmlns="http://www.w3.org/2000/svg" xmlns:xlink="http://www.w3.org/1999/xlink" x="0px" y="0px"
	 viewBox="-243 245 24 24" style="enable-background:new -243 245 24 24;" xml:space="preserve">
<style type="text/css">
	.st0{fill:#202B30;fill-opacity:0;}
	.st1{fill:#202B30;}
</style>
<g>
	<g>
		<rect x="-243" y="245" class="st0" width="24" height="24"/>
		<path class="st1" d="M-239.1,256h16.1c0.5,0,0.9,0.4,0.9,1v0.1c0,0.5-0.4,1-0.9,1h-16.1c-0.5,0-0.9-0.4-0.9-1V257
			C-240,256.4-239.6,256-239.1,256z"/>
		<path class="st1" d="M-239.1,261h16.1c0.5,0,0.9,0.4,0.9,1v0.1c0,0.5-0.4,1-0.9,1h-16.1c-0.5,0-0.9-0.4-0.9-1V262
			C-240,261.4-239.6,261-239.1,261z"/>
		<path class="st1" d="M-239.1,251h16.1c0.5,0,0.9,0.4,0.9,0.9v0.1c0,0.5-0.4,0.9-0.9,0.9h-16.1c-0.5,0-0.9-0.4-0.9-0.9v-0.1
			C-240,251.4-239.6,251-239.1,251z"/>
	</g>
</g>
</svg>
