<?xml version="1.0" encoding="utf-8"?>
<!-- Generator: Adobe Illustrator 19.0.0, SVG Export Plug-In . SVG Version: 6.00 Build 0)  -->
<svg version="1.1" id="Capa_1" xmlns="http://www.w3.org/2000/svg" xmlns:xlink="http://www.w3.org/1999/xlink" x="0px" y="0px"
	 viewBox="-130 131.7 250.3 250.3" style="enable-background:new -130 131.7 250.3 250.3;" xml:space="preserve">
<style type="text/css">
	.st0{fill:#202B30;}
</style>
<g id="Search">
	<path class="st0" d="M114.2,346.3l-54.4-54.4c-0.3-0.3-0.6-0.5-0.9-0.8c10.7-16.2,16.9-35.7,16.9-56.6
		c0-56.8-46.1-102.9-102.9-102.9S-130,177.8-130,234.6c0,56.8,46.1,102.9,102.9,102.9c20.9,0,40.3-6.2,56.6-16.9
		c0.3,0.3,0.5,0.6,0.8,0.9l54.4,54.4c8.2,8.2,21.4,8.2,29.6,0C122.4,367.7,122.4,354.5,114.2,346.3z M-27.1,301.8
		c-37.1,0-67.2-30.1-67.2-67.2c0-37.1,30.1-67.2,67.2-67.2c37.1,0,67.2,30.1,67.2,67.2S10,301.8-27.1,301.8z"/>
</g>
</svg>
